# AST/ASF file generated using VICON BodyLanguage
# -----------------------------------------------
:version 1.10
:name VICON
:units
  mass 1.0
  length 0.45
  angle deg
:documentation
   .ast/.asf automatically generated from VICON data using
   VICON BodyBuilder and BodyLanguage model FoxedUp or BRILLIANT.MOD
:root
   order TX TY TZ RX RY RZ
   axis XYZ
   position 0 0 0  
   orientation 0 0 0 
:bonedata
  begin
     id 1 
     name lhipjoint
     direction 0.702568 -0.596508 0.388042 
     length 2.56661 
     axis 0 0 0  XYZ
  end
  begin
     id 2 
     name lfemur
     direction 0.34202 -0.939693 0  
     length 6.58374  
     axis 0 0 20  XYZ
    dof rx ry rz
    limits (-160.0 20.0)
           (-70.0 70.0)
           (-60.0 70.0)
  end
  begin
     id 3 
     name ltibia
     direction 0.34202 -0.939693 0   
     length 6.62538   
     axis 0 0 20   XYZ
    dof rx
    limits (-10.0 170.0)
  end
  begin
     id 4 
     name lfoot
     direction 0.10455 -0.287249 0.952133   
     length 2.26699   
     axis -90 7.62852e-016 20   XYZ
    dof rx rz
    limits (-45.0 90.0)
           (-70.0 20.0)
  end
  begin
     id 5 
     name ltoes
     direction 1.53572e-011 -4.22322e-011 1   
     length 1.12949   
     axis -90 7.62852e-016 20   XYZ
    dof rx
    limits (-90.0 20.0)
  end
  begin
     id 6 
     name rhipjoint
     direction -0.728055 -0.574632 0.373811   
     length 2.66432  
     axis 0 0 0  XYZ 
  end
  begin
     id 7 
     name rfemur
     direction -0.34202 -0.939693 0   
     length 6.66732   
     axis 0 0 -20   XYZ
    dof rx ry rz
    limits (-160.0 20.0)
           (-70.0 70.0)
           (-70.0 60.0)
  end
  begin
     id 8 
     name rtibia
     direction -0.34202 -0.939693 0   
     length 6.59288   
     axis 0 0 -20   XYZ
    dof rx
    limits (-10.0 170.0)
 end
 begin
     id 9 
     name rfoot
     direction -0.119193 -0.327479 0.93731   
     length 2.38061  
     axis -90 -7.62852e-016 -20   XYZ
    dof rx rz
    limits (-45.0 90.0)
           (-20.0 70.0)
  end
  begin
     id 10 
     name rtoes
     direction -1.53547e-011 -4.21827e-011 1   
     length 1.17899   
     axis -90 -7.62852e-016 -20   XYZ
    dof rx
    limits (-90.0 20.0)
  end
  begin
     id 11 
     name lowerback
     direction -0.000416114 0.999912 -0.0132284   
     length 2.12109   
     axis 0 0 0   XYZ
    dof rx ry rz
    limits (-20.0 45.0)
           (-30.0 30.0)
           (-30.0 30.0)
  end
  begin
     id 12 
     name upperback
     direction -0.00136371 0.99809 0.0617608   
     length 2.10067   
     axis 0 0 0   XYZ
    dof rx ry rz
    limits (-20.0 45.0)
           (-30.0 30.0)
           (-30.0 30.0)
  end
  begin
     id 13 
     name thorax
     direction -3.43026e-005 0.997776 0.0666515   
     length 2.10618   
     axis 0 0 0   XYZ
    dof rx ry rz
    limits (-20.0 45.0)
           (-30.0 30.0)
           (-30.0 30.0)
  end
  begin
     id 14 
     name lowerneck
     direction 0.0398646 0.998418 0.0396592   
     length 1.83817   
     axis 0 0 0   XYZ
    dof rx ry rz
    limits (-20.0 45.0)
           (-30.0 30.0)
           (-30.0 30.0)
  end
  begin
     id 15 
     name upperneck
     direction -0.0367268 0.961527 -0.272244   
     length 1.81975   
     axis 0 0 0   XYZ
    dof rx ry rz
    limits (-20.0 45.0)
           (-30.0 30.0)
           (-30.0 30.0)
  end
  begin
     id 16
     name head
     direction -0.0182665 0.99536 -0.0944669  
     length 1.86026  
     axis 0 0 0   XYZ
    dof rx ry rz
    limits (-20.0 45.0)
           (-30.0 30.0)
           (-30.0 30.0)
  end
  begin
     id 17 
     name lclavicle
     direction 0.924239 0.361045 0.124212  
     length 3.26878  
     axis 0 0 0   XYZ
    dof ry rz
    limits (-20.0 10.0)
           (0.0 20.0)
  end
  begin
     id 18 
     name lhumerus
     direction 1 -4.48968e-011 -2.56583e-027   
     length 4.58538   
     axis 180 -30 -90   XYZ
    dof rx ry rz
    limits (-60.0 90.0)
           (-90.0 90.0)
           (-90.0 90.0)
  end
  begin
     id 19
     name lradius
     direction 1 -4.4898e-011 -5.50375e-027   
     length 2.68935   
     axis 180 -30 -90   XYZ
    dof rx
    limits (-10.0 170.0)
  end
  begin
     id 20
     name lwrist
     direction 1 -4.48939e-011 -1.48955e-026   
     length 1.34468   
     axis 9.0955e-015 90 90   XYZ
    dof ry
    limits (-180.0 0.0)
 end
  begin
     id 21 
     name lhand
     direction 1 -4.48936e-011 -2.97907e-026   
     length 0.585058   
     axis 1.90115e-014 90 90   XYZ
    dof rx rz
    limits (-90.0 90.0)
           (-45.0 45.0)
  end
  begin
     id 22 
     name lfingers
     direction 1 -4.49082e-011 -5.96235e-026   
     length 0.471689   
     axis 3.80223e-014 90 90   XYZ
    dof rx
    limits (0.0 90.0)
  end
  begin
     id 23
     name lthumb
     direction 0.707107 -6.3489e-011 0.707107   
     length 0.677253   
     axis -90 45 -3.84942e-014   XYZ
    dof rx rz
    limits (-45.0 45.0)
           (-45.0 45.0)
  end
  begin
     id 24 
     name rclavicle
     direction -0.923098 0.371783 0.0983239   
     length 3.19656  
     axis 0 0 0   XYZ 
    dof ry rz
    limits (-10.0 20.0)
           (-20.0 0.0)
  end
  begin
     id 25 
     name rhumerus
     direction -1 -4.48976e-011 -2.5492e-027  
     length 4.4745   
     axis 180 30 90   XYZ
    dof rx ry rz
    limits (-90.0 60.0)
           (-90.0 90.0)
           (-90.0 90.0)
  end
  begin
     id 26 
     name rradius
     direction -1 -4.48941e-011 -4.36555e-027   
     length 2.93896   
     axis 180 30 90   XYZ
    dof rx
    limits (-10.0 170.0)
  end
  begin
     id 27 
     name rwrist
     direction -1 -4.49044e-011 -1.49032e-026   
     length 1.46948   
     axis 9.0955e-015 -90 -90   XYZ
    dof ry
    limits (-180.0 0.0)
  end
  begin
     id 28
     name rhand
     direction -1 -4.48826e-011 -2.97749e-026   
     length 0.405092   
     axis 1.90115e-014 -90 -90   XYZ
    dof rx rz
    limits (-90.0 90.0)
           (-45.0 45.0)
  end
  begin
     id 29
     name rfingers
     direction -1 -4.49209e-011 -5.96602e-026   
     length 0.326596   
     axis 3.80223e-014 -90 -90   XYZ
    dof rx
    limits (0.0 90.0)
  end
  begin
     id 30
     name rthumb
     direction -0.707107 -6.34776e-011 0.707107   
     length 0.468928   
     axis -90 -45 3.84942e-014   XYZ
    dof rx rz
    limits (-45.0 45.0)
           (-45.0 45.0)
  end
:hierarchy
  begin
    root lhipjoint rhipjoint lowerback
    lhipjoint lfemur
    lfemur ltibia
    ltibia lfoot
    lfoot ltoes
    rhipjoint rfemur
    rfemur rtibia
    rtibia rfoot
    rfoot rtoes
    lowerback upperback
    upperback thorax
    thorax lowerneck lclavicle rclavicle
    lowerneck upperneck
    upperneck head
    lclavicle lhumerus
    lhumerus lradius
    lradius lwrist
    lwrist lhand lthumb
    lhand lfingers
    rclavicle rhumerus
    rhumerus rradius
    rradius rwrist
    rwrist rhand rthumb
    rhand rfingers
  end

#!OML:ASF H:\Punching\Project 1\Capture day 1\Session 1\female.ASF
:FULLY-SPECIFIED
:DEGREES
578
root -1.59681 14.7325 6.15873 16.2678 12.3796 3.27787
lowerback 2.25869 -2.22353 -0.533664
upperback -4.08463 -2.96265 0.846727
thorax -5.41884 -1.42878 1.37928
lowerneck -8.45102 -0.667091 9.45517
upperneck 27.7883 -2.95931 0.686264
head 10.173 -0.295661 -1.69408
rclavicle 1.28713e-014 -1.27222e-014
rhumerus 9.18189 21.3323 -76.8303
rradius 137.85
rwrist -46.0055
rhand -13.6567 -5.88593
rfingers 7.12502
rthumb 12.4601 -35.4945
lclavicle 1.28713e-014 -1.27222e-014
lhumerus 8.7526 -31.5409 80.8355
lradius 138.55
lwrist 42.309
lhand -11.7409 35.1607
lfingers 7.12502
lthumb 14.3067 64.6478
rfemur -48.005 1.20579 8.55335
rtibia 57.9047
rfoot -19.9021 -9.29212
rtoes -6.999
lfemur 5.20092 -8.62053 -5.41209
ltibia 9.09844
lfoot -15.4291 1.75894
ltoes -33.6129
579
root -1.63039 14.7439 6.16398 16.3887 14.8836 3.23582
lowerback 2.48202 -1.93332 0.175192
upperback -4.12129 -2.52929 0.960879
thorax -5.6216 -1.23819 1.08267
lowerneck -8.60848 -1.60377 8.47102
upperneck 27.1952 -4.29259 1.5674
head 9.96246 -0.926466 -1.35243
rclavicle 3.24019e-014 7.95139e-016
rhumerus 8.9685 19.8389 -76.1287
rradius 138.299
rwrist -45.9635
rhand -13.7483 -5.8449
rfingers 7.12502
rthumb 12.3718 -35.4588
lclavicle 3.24019e-014 7.95139e-016
lhumerus 8.24243 -33.0177 81.0061
lradius 139.799
lwrist 41.5968
lhand -12.0106 34.6196
lfingers 7.12502
lthumb 14.0468 64.1249
rfemur -47.3465 -0.208811 9.02011
rtibia 58.0193
rfoot -20.0912 -9.98554
rtoes -6.76032
lfemur 3.22664 -10.7955 -4.38221
ltibia 10.6213
lfoot -15.7913 2.15551
ltoes -33.4115
580
root -1.66413 14.7732 6.17251 16.4747 17.2578 3.10986
lowerback 2.69603 -1.63803 0.905214
upperback -4.15651 -2.0801 1.13577
thorax -5.80859 -1.0409 0.831662
lowerneck -8.68852 -2.50196 7.4529
upperneck 26.5586 -5.53409 2.40974
head 9.75342 -1.5267 -1.01036
rclavicle 1.98785e-014 -2.06736e-014
rhumerus 8.85789 18.3129 -75.3789
rradius 138.698
rwrist -46.2113
rhand -13.8299 -5.82127
rfingers 7.12502
rthumb 12.2931 -35.4399
lclavicle 1.98785e-014 -2.06736e-014
lhumerus 7.82747 -34.4472 81.1951
lradius 140.871
lwrist 40.4094
lhand -12.1812 34.0717
lfingers 7.12502
lthumb 13.8823 63.5883
rfemur -46.6182 -1.42069 9.54875
rtibia 58.003
rfoot -20.2805 -10.744
rtoes -6.46557
lfemur 1.39784 -11.3692 -3.21413
ltibia 11.8634
lfoot -16.0092 1.13701
ltoes -33.2091
581
root -1.69475 14.7801 6.17582 16.522 19.4349 2.94466
lowerback 2.90019 -1.30094 1.61473
upperback -4.19687 -1.57072 1.31991
thorax -5.98702 -0.814128 0.593145
lowerneck -8.66627 -3.37666 6.45639
upperneck 25.8966 -6.71514 3.20819
head 9.54273 -2.10547 -0.681493
rclavicle 4.57205e-015 3.49861e-014
rhumerus 8.79793 16.6921 -74.6241
rradius 139.049
rwrist -46.7348
rhand -13.8946 -5.8606
rfingers 7.12502
rthumb 12.2307 -35.483
lclavicle 4.57205e-015 3.49861e-014
lhumerus 7.48853 -35.885 81.4105
lradius 141.786
lwrist 38.8039
lhand -12.159 33.5264
lfingers 7.12502
lthumb 13.9038 63.0416
rfemur -46.0333 -2.43324 10.0396
rtibia 58.0329
rfoot -20.4413 -11.5145
rtoes -6.15469
lfemur -0.2129 -11.9357 -2.09955
ltibia 12.8703
lfoot -16.1861 0.322479
ltoes -33.0168
582
root -1.72435 14.7836 6.1785 16.5498 21.3627 2.79912
lowerback 3.10697 -0.942862 2.19176
upperback -4.23963 -1.03502 1.52975
thorax -6.15797 -0.569081 0.449774
lowerneck -8.59963 -4.18809 5.47078
upperneck 25.2714 -7.78035 3.91483
head 9.35831 -2.63967 -0.376271
rclavicle 9.0447e-015 8.74653e-015
rhumerus 8.84383 15.069 -73.8591
rradius 139.331
rwrist -47.5287
rhand -13.947 -5.96056
rfingers 7.12502
rthumb 12.1802 -35.5859
lclavicle 9.0447e-015 8.74653e-015
lhumerus 7.20806 -37.2352 81.6725
lradius 142.563
lwrist 36.8474
lhand -11.9395 32.9729
lfingers 7.12502
lthumb 14.1153 62.4734
rfemur -45.5183 -3.21665 10.4573
rtibia 58.0621
rfoot -20.5995 -12.3278
rtoes -5.87324
lfemur -1.58267 -12.4907 -1.12957
ltibia 13.6261
lfoot -16.3027 -0.257416
ltoes -32.878
583
root -1.75355 14.7833 6.18104 16.5756 22.9959 2.72125
lowerback 3.32167 -0.562762 2.56939
upperback -4.27634 -0.47801 1.7463
thorax -6.31838 -0.305154 0.419766
lowerneck -8.52015 -4.92173 4.5242
upperneck 24.7074 -8.71985 4.51658
head 9.20739 -3.12116 -0.103376
rclavicle -4.81059e-014 3.18055e-015
rhumerus 9.00162 13.4892 -73.1219
rradius 139.537
rwrist -48.5183
rhand -13.9989 -6.14167
rfingers 7.12502
rthumb 12.1301 -35.77
lclavicle -4.81059e-014 3.18055e-015
lhumerus 7.00075 -38.4882 81.9584
lradius 143.209
lwrist 34.6082
lhand -11.594 32.4126
lfingers 7.12502
lthumb 14.4482 61.8896
rfemur -45.1145 -3.76576 10.7602
rtibia 58.1742
rfoot -20.7953 -13.1798
rtoes -5.59954
lfemur -2.81389 -13.0262 -0.364008
ltibia 14.4018
lfoot -16.5005 -0.59499
ltoes -32.7778
584
root -1.78346 14.779 6.18398 16.6297 24.3183 2.74788
lowerback 3.54053 -0.17676 2.69556
upperback -4.29236 0.0723549 1.96239
thorax -6.45603 -0.0331999 0.527159
lowerneck -8.51459 -5.55218 3.65847
upperneck 24.2479 -9.50979 4.97693
head 9.11106 -3.53444 0.117706
rclavicle 1.51076e-014 6.36111e-015
rhumerus 9.30386 12.0337 -72.4464
rradius 139.654
rwrist -49.5963
rhand -14.1168 -6.40235
rfingers 7.12502
rthumb 12.0165 -36.0374
lclavicle 1.51076e-014 6.36111e-015
lhumerus 6.91449 -39.6085 82.219
lradius 143.717
lwrist 32.1696
lhand -11.2126 31.8496
lfingers 7.12502
lthumb 14.8157 61.2999
rfemur -44.8316 -4.0966 10.924
rtibia 58.3427
rfoot -20.9917 -14.053
rtoes -5.28258
lfemur -3.78069 -13.5291 0.167351
ltibia 14.9444
lfoot -16.6434 -0.697643
ltoes -32.7314
585
root -1.81385 14.7716 6.18756 16.7242 25.3431 2.88419
lowerback 3.75619 0.211818 2.60192
upperback -4.30164 0.609785 2.14588
thorax -6.58784 0.241688 0.721703
lowerneck -8.52653 -6.08503 2.90253
upperneck 23.8814 -10.1656 5.32689
head 9.04876 -3.88217 0.293725
rclavicle 4.79071e-014 -1.59028e-015
rhumerus 9.67173 10.7459 -71.8986
rradius 139.687
rwrist -50.6349
rhand -14.2847 -6.67848
rfingers 7.12502
rthumb 11.8546 -36.3229
lclavicle 4.79071e-014 -1.59028e-015
lhumerus 6.90504 -40.6459 82.4459
lradius 144.092
lwrist 29.6187
lhand -10.8733 31.316
lfingers 7.12502
lthumb 15.1425 60.7421
rfemur -44.6723 -4.24808 10.9529
rtibia 58.5775
rfoot -21.1836 -14.9168
rtoes -4.94404
lfemur -4.51089 -13.9939 0.47015
ltibia 15.3023
lfoot -16.7438 -0.59142
ltoes -32.757
586
root -1.84485 14.762 6.19144 16.8623 26.0941 3.10369
lowerback 3.96123 0.585055 2.33488
upperback -4.29517 1.11078 2.29371
thorax -6.70419 0.506027 0.976695
lowerneck -8.60434 -6.50808 2.28234
upperneck 23.617 -10.6786 5.56358
head 9.02573 -4.15688 0.419324
rclavicle -1.78906e-015 -1.27222e-014
rhumerus 10.1078 9.68951 -71.514
rradius 139.641
rwrist -51.5308
rhand -14.5236 -6.94007
rfingers 7.12502
rthumb 11.6242 -36.5976
lclavicle -1.78906e-015 -1.27222e-014
lhumerus 7.03998 -41.5592 82.5749
lradius 144.299
lwrist 27.0627
lhand -10.6242 30.851
lfingers 7.12502
lthumb 15.3825 60.2588
rfemur -44.6411 -4.24578 10.8777
rtibia 58.8712
rfoot -21.3614 -15.7457
rtoes -4.57749
lfemur -5.05266 -14.4062 0.589385
ltibia 15.5286
lfoot -16.8114 -0.321417
ltoes -32.8424
587
root -1.87644 14.7505 6.19599 17.0368 26.5777 3.35645
lowerback 4.14818 0.950856 1.96826
upperback -4.29777 1.58978 2.38961
thorax -6.828 0.762953 1.23292
lowerneck -8.6732 -6.83427 1.79639
upperneck 23.4284 -11.0708 5.73604
head 9.01818 -4.36704 0.512786
rclavicle 9.93923e-016 1.59028e-015
rhumerus 10.517 8.87497 -71.3332
rradius 139.539
rwrist -52.2033
rhand -14.8208 -7.16016
rfingers 7.12502
rthumb 11.3376 -36.8337
lclavicle 9.93923e-016 1.59028e-015
lhumerus 7.2473 -42.3971 82.6256
lradius 144.347
lwrist 24.5842
lhand -10.4532 30.5068
lfingers 7.12502
lthumb 15.5472 59.9018
rfemur -44.7466 -4.08648 10.7438
rtibia 59.2056
rfoot -21.5038 -16.5166
rtoes -4.17469
lfemur -5.44644 -14.7297 0.586394
ltibia 15.674
lfoot -16.8625 0.0647949
ltoes -32.9775
588
root -1.90733 14.7391 6.19982 17.2371 26.8704 3.60892
lowerback 4.30179 1.2806 1.59305
upperback -4.29972 2.01364 2.43277
thorax -6.93716 0.991813 1.44251
lowerneck -8.74758 -7.06101 1.44945
upperneck 23.2983 -11.3416 5.85493
head 9.02047 -4.51172 0.577373
rclavicle -1.78906e-014 -2.8625e-014
rhumerus 10.8988 8.3113 -71.3726
rradius 139.399
rwrist -52.6366
rhand -15.1325 -7.32278
rfingers 7.12502
rthumb 11.037 -37.0126
lclavicle -1.78906e-014 -2.8625e-014
lhumerus 7.56872 -43.0993 82.5622
lradius 144.216
lwrist 22.3246
lhand -10.2834 30.2671
lfingers 7.12502
lthumb 15.7108 59.6493
rfemur -44.9572 -3.85559 10.5931
rtibia 59.5537
rfoot -21.6071 -17.197
rtoes -3.75474
lfemur -5.75746 -14.9931 0.521399
ltibia 15.7836
lfoot -16.8976 0.5133
ltoes -33.1424
589
root -1.93702 14.7288 6.2029 17.4518 27.0072 3.82593
lowerback 4.41449 1.56209 1.25992
upperback -4.29858 2.37051 2.43492
thorax -7.02062 1.18452 1.5916
lowerneck -8.83953 -7.19034 1.21618
upperneck 23.2146 -11.4936 5.93868
head 9.03135 -4.59294 0.623177
rclavicle 8.48811e-014 1.11319e-014
rhumerus 11.2531 7.99435 -71.6229
rradius 139.241
rwrist -52.8545
rhand -15.415 -7.42846
rfingers 7.12502
rthumb 10.7645 -37.1326
lclavicle 8.48811e-014 1.11319e-014
lhumerus 8.02008 -43.6291 82.3789
lradius 143.91
lwrist 20.3932
lhand -10.0709 30.1004
lfingers 7.12502
lthumb 15.9154 59.4664
rfemur -45.2566 -3.58123 10.4595
rtibia 59.8888
rfoot -21.6664 -17.7642
rtoes -3.30083
lfemur -6.01832 -15.1944 0.445833
ltibia 15.8769
lfoot -16.924 0.9792
ltoes -33.3069
590
root -1.96509 14.7201 6.20445 17.6748 27.0192 3.99434
lowerback 4.49163 1.79518 1.01042
upperback -4.30705 2.66386 2.38623
thorax -7.08975 1.34025 1.64694
lowerneck -8.91878 -7.23495 1.10791
upperneck 23.1653 -11.5447 5.99065
head 9.04013 -4.61906 0.649464
rclavicle 4.75095e-014 2.8625e-014
rhumerus 11.5351 7.87137 -72.0761
rradius 139.091
rwrist -52.9102
rhand -15.6205 -7.47465
rfingers 7.12502
rthumb 10.5662 -37.189
lclavicle 4.75095e-014 2.8625e-014
lhumerus 8.57673 -44.0266 82.0905
lradius 143.466
lwrist 18.8854
lhand -9.8246 29.9799
lfingers 7.12502
lthumb 16.1525 59.3269
rfemur -45.6259 -3.29909 10.359
rtibia 60.1887
rfoot -21.6746 -18.2049
rtoes -2.84368
lfemur -6.248 -15.3428 0.385337
ltibia 15.9537
lfoot -16.9321 1.43546
ltoes -33.4772
